<?xml version="1.0" standalone="no"?>
<!DOCTYPE svg PUBLIC "-//W3C//DTD SVG 20010904//EN"
 "http://www.w3.org/TR/2001/REC-SVG-20010904/DTD/svg10.dtd">
<svg version="1.0" xmlns="http://www.w3.org/2000/svg"
 width="1536.000000pt" height="1024.000000pt" viewBox="0 0 1536.000000 1024.000000"
 preserveAspectRatio="xMidYMid meet">

<g transform="translate(0.000000,1024.000000) scale(0.100000,-0.100000)"
fill="#000000" stroke="none">
<path d="M5785 9853 c-11 -3 -60 -18 -110 -35 -112 -37 -232 -53 -550 -73
-356 -22 -456 -38 -562 -87 -70 -33 -136 -103 -162 -172 -24 -64 -43 -222 -36
-294 2 -26 7 -76 10 -112 16 -177 96 -480 166 -629 50 -106 92 -159 160 -196
49 -27 62 -30 144 -29 72 0 106 6 170 28 164 58 265 131 365 265 l51 70 -19
38 c-24 46 -42 129 -42 186 1 76 53 157 101 157 31 0 69 -41 110 -121 23 -43
45 -79 49 -79 4 0 15 9 26 21 17 19 19 43 24 254 5 254 1 236 75 310 124 124
179 412 93 488 -21 17 -28 18 -63 10z"/>
<path d="M6470 9288 c-18 -13 -43 -36 -54 -51 -21 -28 -21 -31 -26 -1185 l-5
-1157 -39 105 c-123 327 -199 478 -294 581 -96 104 -182 143 -388 174 -171 25
-161 22 -169 61 -8 47 -72 109 -149 145 -160 75 -561 120 -780 89 -132 -19
-186 -61 -200 -154 l-7 -42 -87 -17 c-113 -24 -279 -79 -356 -120 -94 -49
-195 -156 -244 -258 -61 -124 -116 -340 -147 -576 l-7 -53 69 0 c165 0 461
-37 683 -86 369 -81 541 -162 715 -338 79 -79 98 -105 142 -196 53 -108 91
-225 142 -442 41 -173 64 -323 111 -718 52 -443 66 -544 92 -659 75 -340 195
-505 419 -576 164 -52 467 -81 942 -91 155 -3 296 -10 313 -15 44 -13 74 -50
79 -95 2 -21 2 -31 -1 -21 -5 15 -12 17 -32 12 -15 -3 -182 -9 -371 -12 -716
-11 -1028 42 -1251 215 -200 155 -278 369 -336 931 -74 722 -142 1087 -235
1273 -116 231 -295 396 -531 491 -240 96 -656 159 -1053 159 -219 1 -331 -10
-452 -42 -85 -23 -214 -84 -242 -114 l-21 -22 40 -149 c122 -467 165 -903 142
-1437 -7 -150 -12 -324 -12 -386 1 -445 127 -762 380 -954 71 -54 209 -125
307 -157 163 -54 482 -100 918 -131 337 -24 307 -19 301 -49 -6 -28 -46 -286
-131 -856 -123 -817 -146 -978 -142 -989 2 -6 11 43 21 109 10 66 22 145 26
175 5 30 18 114 29 185 11 72 32 209 47 305 14 96 30 176 35 178 4 2 6 18 3
35 -5 30 -4 29 16 -11 11 -23 18 -47 15 -52 -3 -6 3 -10 14 -10 12 0 21 -5 21
-12 0 -9 3 -8 13 1 10 11 10 14 0 18 -7 3 -13 9 -13 14 0 17 15 9 33 -18 l18
-28 -7 36 c-4 25 -1 39 9 47 12 10 16 9 20 -7 3 -15 1 -18 -12 -14 -14 4 -14
3 1 -10 10 -8 16 -16 14 -18 -2 -2 -6 -20 -9 -39 -26 -179 -52 -349 -72 -470
-43 -253 -86 -551 -83 -568 2 -9 20 93 41 228 21 135 53 342 72 460 89 548
196 1211 206 1268 l11 62 349 0 c192 0 352 0 357 0 8 1 2 42 137 -835 156
-1016 225 -1457 230 -1485 5 -23 9 -25 53 -23 294 16 604 36 674 44 l87 10 30
-33 29 -33 122 -3 c114 -4 122 -3 116 15 -3 10 -30 133 -60 273 -30 140 -74
345 -98 455 -31 144 -43 223 -43 282 0 44 -3 77 -6 71 -3 -5 -9 8 -12 28 -4
26 -2 46 9 61 12 20 12 23 0 23 -8 0 -17 -8 -20 -17 -2 -10 -4 -3 -3 16 1 21
8 36 17 39 13 5 13 3 1 -11 -12 -15 -11 -17 4 -17 13 0 16 6 13 24 -3 15 -1
23 7 20 17 -7 18 -71 2 -77 -8 -3 -17 -16 -20 -29 -5 -19 -4 -21 6 -7 7 9 18
14 25 11 9 -3 12 3 10 14 -2 14 4 20 21 22 23 4 23 2 18 -45 -3 -26 -3 -39 0
-28 3 11 10 26 15 32 6 7 11 35 11 63 1 48 2 49 15 24 8 -16 10 -30 4 -37 -13
-17 -23 -55 -28 -107 -4 -53 0 -46 20 30 8 30 15 45 15 33 1 -12 -3 -32 -8
-45 -7 -19 -1 -36 30 -88 22 -36 37 -54 34 -40 -30 141 -145 743 -142 746 2 2
13 -42 25 -98 232 -1144 304 -1499 308 -1528 7 -55 -51 189 -71 299 -10 55
-22 98 -27 95 -5 -3 -6 6 -2 20 6 24 5 24 -20 13 -18 -9 -21 -13 -10 -15 11
-3 14 -11 9 -29 -4 -17 -2 -23 6 -17 7 4 10 2 7 -7 -3 -8 -12 -13 -22 -11 -19
3 -22 -28 -4 -46 9 -9 9 -12 -2 -13 -8 -1 -18 -1 -23 0 -4 0 -6 -2 -6 -6 3
-17 -1 -36 -6 -31 -14 14 -14 56 0 62 22 8 19 36 -4 36 -10 0 -22 8 -26 18 -7
16 -8 15 -15 -3 -12 -28 -12 -43 0 -25 8 11 9 7 4 -14 -6 -23 -4 -27 7 -22 8
4 4 -1 -9 -11 l-23 -19 36 -169 c20 -94 38 -195 40 -225 7 -132 43 -178 129
-167 58 8 80 38 72 99 -8 60 -16 79 -27 72 -5 -3 -6 2 -2 11 4 12 8 13 13 4
10 -15 642 -6 795 12 146 17 149 18 142 80 -7 58 -31 104 -67 130 -14 10 -101
41 -195 69 -154 47 -269 89 -410 150 l-50 22 26 13 c23 13 27 22 32 88 6 66
45 361 182 1377 154 1139 143 1318 -88 1481 -73 51 -169 92 -312 134 -305 88
-832 157 -1312 172 -117 3 -213 9 -213 11 0 3 -14 72 -30 152 -61 296 -82 574
-61 805 12 130 51 405 75 522 l12 61 -63 114 c-34 62 -63 116 -63 120 0 11 78
43 407 168 l311 117 26 -71 c13 -39 41 -120 60 -181 20 -60 52 -156 72 -212
l37 -103 786 -2 786 -3 3 -141 3 -141 72 -5 c71 -5 254 -65 356 -118 48 -24
73 -67 69 -118 l-3 -37 -163 4 c-148 3 -168 2 -210 -17 -26 -11 -56 -23 -66
-26 -10 -4 -17 -7 -15 -9 2 -1 336 0 741 3 722 5 737 5 752 25 20 26 20 105 0
133 -15 22 -19 22 -240 22 l-224 0 0 215 0 215 829 0 828 0 33 23 c18 12 41
38 51 57 18 33 19 93 19 1513 l0 1479 -21 38 c-12 21 -38 47 -59 59 l-38 21
-2224 0 -2225 0 -33 -22z m4418 -1440 l-3 -1283 -2165 0 -2165 0 -3 1270 c-1
699 0 1276 3 1283 3 9 447 12 2170 12 l2165 0 -2 -1282z m-3873 -4515 c-6 -57
-34 -485 -36 -553 -1 -34 -2 -34 -11 10 -34 151 -117 554 -115 555 8 4 144 43
155 44 10 1 12 -13 7 -56z m-175 -8 c0 -9 -6 -12 -16 -8 -13 5 -13 7 -2 14 17
11 18 11 18 -6z m-50 -4 c-8 -5 -28 -11 -45 -14 -49 -8 -64 -17 -58 -34 4 -11
2 -14 -8 -11 -8 2 -15 14 -17 25 -3 17 5 21 60 30 84 14 85 14 68 4z m-146
-28 c17 -60 212 -953 260 -1193 37 -184 37 -117 2 -594 -11 -160 -11 -169 6
-174 22 -5 22 0 -2 -47 -11 -21 -23 -54 -26 -72 -3 -18 -10 -33 -14 -33 -4 0
-56 21 -116 46 -60 25 -147 61 -194 79 -47 19 -107 43 -135 55 -46 20 -48 23
-27 31 27 10 27 16 7 414 -8 160 -21 459 -30 665 -14 341 -24 515 -42 733 l-6
77 49 1 c39 1 223 20 256 28 4 0 9 -7 12 -16z m-651 -30 c-13 -2 -35 -2 -50 0
-16 2 -5 4 22 4 28 0 40 -2 28 -4z m995 -613 c0 -22 -1 -22 -8 5 -4 17 -8 41
-8 55 0 22 1 22 8 -5 4 -16 8 -41 8 -55z m-2277 -225 c5 4 6 0 3 -8 -3 -8 -16
-14 -30 -13 -29 1 -28 0 -7 22 11 11 18 13 21 5 2 -6 8 -9 13 -6z m100 -18
c-10 -9 -11 -8 -5 6 3 10 9 15 12 12 3 -3 0 -11 -7 -18z m-81 -42 c-7 -9 -15
-13 -17 -11 -7 7 7 26 19 26 6 0 6 -6 -2 -15z m7 -38 c-13 -13 -25 -18 -29
-12 -4 5 3 15 15 22 34 19 39 15 14 -10z m2160 -109 c-3 -8 -6 -5 -6 6 -1 11
2 17 5 13 3 -3 4 -12 1 -19z m29 -47 c18 15 18 2 0 -16 -12 -12 -15 -12 -20 1
-3 9 -5 21 -5 27 1 7 3 4 6 -6 4 -14 8 -16 19 -6z m168 -186 c3 -8 1 -15 -4
-15 -6 0 -10 7 -10 15 0 8 2 15 4 15 2 0 6 -7 10 -15z m13 -57 c-3 -8 -6 -5
-6 6 -1 11 2 17 5 13 3 -3 4 -12 1 -19z m4 -681 c-10 -9 -11 -8 -5 6 3 10 9
15 12 12 3 -3 0 -11 -7 -18z m6 -39 c-3 -8 -6 -5 -6 6 -1 11 2 17 5 13 3 -3 4
-12 1 -19z m220 -290 c-3 -7 -5 -2 -5 12 0 14 2 19 5 13 2 -7 2 -19 0 -25z"/>
<path d="M8060 8251 l0 -241 114 0 c123 0 176 13 232 55 95 73 104 256 16 348
-54 57 -95 70 -234 75 l-128 4 0 -241z m239 131 c50 -25 74 -63 78 -124 8 -99
-46 -153 -157 -160 l-55 -3 -3 153 -3 152 53 0 c31 0 67 -7 87 -18z"/>
<path d="M8560 8343 c1 -168 10 -223 47 -271 66 -87 228 -97 311 -19 50 47 56
71 60 260 l4 177 -56 0 -56 0 0 -166 c0 -94 -4 -174 -10 -185 -29 -53 -119
-61 -166 -14 -23 24 -24 28 -24 195 l0 170 -55 0 -55 0 0 -147z"/>
<path d="M9240 8311 c0 -194 -2 -204 -57 -217 -18 -5 -36 1 -67 23 l-43 30
-28 -35 -29 -35 35 -29 c82 -69 207 -62 263 15 19 26 21 46 26 228 l5 199 -52
0 -53 0 0 -179z"/>
<path d="M9460 8250 l0 -240 165 0 165 0 0 40 0 40 -115 0 -115 0 0 55 0 55
95 0 95 0 0 45 0 45 -95 0 -95 0 0 55 0 55 115 0 115 0 0 45 0 45 -165 0 -165
0 0 -240z"/>
<path d="M9900 8250 l0 -240 165 0 165 0 0 40 0 40 -115 0 -115 0 0 55 0 55
95 0 95 0 0 45 0 45 -95 0 -95 0 0 55 0 55 115 0 115 0 0 45 0 45 -165 0 -165
0 0 -240z"/>
<path d="M8070 7740 l0 -115 75 -3 c74 -3 75 -3 75 21 0 24 -3 25 -52 24 -50
-1 -53 1 -56 26 -3 26 -1 27 42 27 39 0 46 3 46 20 0 17 -7 20 -45 20 -41 0
-45 2 -45 25 0 24 3 25 55 25 48 0 55 3 55 19 0 17 -9 20 -75 23 l-75 3 0
-115z"/>
<path d="M8517 7852 c-17 -3 -19 -13 -15 -93 4 -103 19 -127 86 -136 36 -5 45
-2 72 25 29 29 30 34 30 115 0 76 -2 85 -20 90 -19 5 -20 0 -20 -74 0 -66 -3
-82 -20 -99 -24 -24 -39 -25 -66 -6 -15 12 -20 30 -24 98 -4 74 -7 83 -23 80z"/>
<path d="M9035 7854 c-5 -1 -23 -5 -38 -8 -37 -9 -67 -59 -67 -113 0 -33 7
-50 29 -75 26 -29 35 -33 81 -33 46 0 55 4 81 33 36 40 39 100 9 150 -11 17
-21 32 -22 32 -2 0 -17 4 -33 8 -17 5 -34 8 -40 6z m55 -64 c42 -42 8 -130
-50 -130 -35 0 -70 40 -70 81 0 38 32 69 70 69 17 0 39 -9 50 -20z"/>
<path d="M9348 7853 c-14 -3 -18 -18 -20 -76 l-3 -72 -44 73 c-34 57 -48 72
-67 72 -24 0 -24 0 -24 -116 0 -114 0 -115 23 -112 20 3 22 8 21 71 -1 37 2
67 6 67 4 0 26 -31 49 -69 30 -52 46 -69 61 -68 19 1 20 9 20 119 0 65 -1 117
-2 117 -2 -1 -11 -3 -20 -6z"/>
<path d="M9430 7739 l0 -115 76 -2 c72 -1 75 0 72 21 -3 20 -9 22 -55 20 -52
-1 -53 -1 -53 28 0 28 2 29 45 29 38 0 45 3 45 20 0 17 -7 20 -45 20 -41 0
-45 2 -45 25 0 24 3 25 54 25 48 0 55 2 53 19 -1 17 -10 20 -74 23 l-73 3 0
-116z"/>
<path d="M9714 7846 c-3 -7 -3 -59 -2 -117 3 -95 5 -104 22 -104 17 0 19 7 18
65 0 35 2 68 5 73 3 5 25 -24 49 -64 31 -53 49 -73 64 -73 11 0 20 3 20 7 0 4
0 56 0 116 0 97 -2 109 -17 107 -15 -1 -19 -14 -23 -76 l-5 -75 -42 71 c-41
69 -78 98 -89 70z"/>
<path d="M10150 7738 c0 -111 1 -118 20 -118 17 0 20 7 20 45 0 44 0 45 34 45
46 0 79 29 79 69 0 46 -23 64 -93 71 l-60 6 0 -118z m91 72 c37 -20 17 -70
-28 -70 -20 0 -23 5 -23 40 0 43 13 50 51 30z"/>
<path d="M10414 7853 c-16 -3 -30 -28 -62 -112 -23 -59 -42 -110 -42 -114 0
-3 9 -5 21 -4 13 1 26 13 34 34 13 30 17 32 56 30 37 -3 45 -7 55 -32 12 -31
60 -47 49 -16 -41 111 -79 207 -84 212 -3 3 -15 3 -27 2z m21 -89 c19 -47 20
-44 -16 -44 -24 0 -30 3 -25 16 3 9 9 27 12 40 8 32 11 31 29 -12z"/>
<path d="M10560 7741 l0 -116 77 2 c66 1 78 4 78 19 0 14 -10 17 -55 18 l-55
1 -5 95 c-4 81 -8 95 -22 96 -16 2 -18 -10 -18 -115z"/>
<path d="M8260 7742 c0 -60 2 -111 4 -113 3 -3 34 -2 70 1 50 4 71 11 90 29
49 46 43 128 -12 171 -19 15 -40 20 -88 20 l-64 0 0 -108z m132 51 c24 -22 24
-84 0 -106 -19 -17 -75 -27 -79 -14 -2 4 -3 36 -3 72 l0 65 32 0 c17 0 40 -7
50 -17z"/>
<path d="M8730 7830 c0 -16 8 -19 56 -22 l55 -3 -56 -75 c-30 -41 -54 -81 -53
-90 3 -12 20 -15 88 -15 78 0 85 2 85 20 0 18 -6 20 -58 17 -31 -2 -57 -1 -57
2 0 4 25 38 55 78 78 101 76 108 -30 108 -78 0 -85 -2 -85 -20z"/>
<path d="M9950 7738 l0 -113 75 0 c69 0 75 2 75 20 0 18 -6 20 -52 20 -50 0
-53 1 -56 28 -3 26 -2 27 42 27 39 0 46 3 46 20 0 17 -7 20 -45 20 -41 0 -45
2 -45 25 0 24 3 25 55 25 48 0 55 2 55 20 0 18 -7 20 -75 20 l-75 0 0 -112z"/>
<path d="M8920 7169 c-99 -29 -172 -120 -178 -224 -5 -81 10 -127 62 -183 82
-90 199 -116 301 -68 55 25 119 90 141 142 19 44 18 135 -1 182 -20 47 -79
108 -130 134 -45 24 -143 32 -195 17z m-5 -139 c0 -30 -35 -40 -55 -15 -10 12
-10 18 0 30 20 25 55 15 55 -15z m196 -69 c21 -17 24 -30 27 -100 l4 -81 -36
0 -36 0 0 70 c0 54 -4 72 -15 76 -30 12 -45 -15 -45 -82 l0 -64 -30 0 -30 0 0
95 0 96 40 -3 c22 -1 43 1 46 5 13 13 52 7 75 -12z m-191 -86 l0 -95 -30 0
-30 0 0 95 0 95 30 0 30 0 0 -95z"/>
<path d="M9663 7157 c-107 -40 -168 -126 -168 -237 0 -74 18 -119 68 -170 133
-137 370 -87 432 91 58 163 -70 331 -249 328 -28 0 -65 -6 -83 -12z m214 -109
c45 -46 41 -242 -6 -268 -57 -30 -228 -23 -260 11 -35 38 -33 221 2 256 22 22
87 33 171 28 56 -3 74 -9 93 -27z"/>
<path d="M9692 7041 c-30 -4 -57 -13 -62 -21 -13 -20 -12 -177 0 -201 10 -17
22 -19 113 -19 67 0 107 4 115 12 8 8 12 46 12 104 0 100 -10 123 -53 125 -12
0 -33 2 -47 3 -14 2 -49 0 -78 -3z m156 -38 c-5 -25 -28 -28 -28 -4 0 12 6 21
16 21 9 0 14 -7 12 -17z m-49 -19 c25 -20 31 -34 31 -64 0 -30 -6 -44 -31 -64
-17 -14 -41 -26 -54 -26 -13 0 -37 12 -54 26 -25 20 -31 34 -31 64 0 30 6 44
31 64 17 14 41 26 54 26 13 0 37 -12 54 -26z"/>
<path d="M9712 6964 c-32 -22 -30 -69 4 -91 24 -15 29 -15 53 -2 36 20 41 71
9 93 -28 20 -38 20 -66 0z"/>
<path d="M10470 7160 c102 -9 161 -43 211 -125 11 -16 19 -26 19 -21 0 19 -42
75 -75 100 -54 42 -99 56 -167 54 l-63 -1 75 -7z"/>
<path d="M8148 7146 c-56 -20 -85 -42 -118 -88 -76 -104 -60 -236 40 -320 117
-101 310 -64 380 72 29 58 34 102 15 165 -37 130 -197 216 -317 171z m162
-112 c0 -34 -2 -36 -25 -30 -22 6 -25 3 -25 -19 0 -20 5 -25 25 -25 18 0 25
-5 25 -19 0 -33 -11 -51 -31 -51 -17 0 -19 -8 -19 -60 l0 -60 -35 0 -35 0 0
59 c0 50 -3 59 -20 64 -15 4 -20 14 -20 36 0 24 4 31 20 31 16 0 20 7 20 33 0
43 24 64 75 70 22 2 41 4 43 5 1 1 2 -14 2 -34z"/>
<path d="M10360 7150 c-8 -5 -10 -10 -5 -10 6 0 17 5 25 10 8 5 11 10 5 10 -5
0 -17 -5 -25 -10z"/>
<path d="M10295 7108 c-126 -110 -105 -319 40 -404 51 -29 152 -43 195 -26 19
8 10 9 -36 5 -126 -11 -228 54 -260 165 -29 100 -6 185 69 255 49 45 42 50 -8
5z"/>
<path d="M10484 7018 l-19 -23 22 19 c17 14 32 17 60 13 26 -5 33 -3 23 3 -26
17 -66 11 -86 -12z"/>
<path d="M10370 7021 c0 -6 15 -18 33 -26 27 -13 29 -14 12 -1 -11 9 -26 20
-32 26 -9 7 -13 7 -13 1z"/>
<path d="M10341 7004 c0 -11 3 -14 6 -6 3 7 2 16 -1 19 -3 4 -6 -2 -5 -13z"/>
<path d="M10705 6920 c0 -44 3 -72 7 -62 4 9 7 37 7 62 0 25 -3 53 -7 62 -4
10 -7 -18 -7 -62z"/>
<path d="M10450 6980 c-13 -8 -12 -10 3 -10 9 0 17 5 17 10 0 12 -1 12 -20 0z"/>
<path d="M10606 6978 c-9 -29 -16 -81 -10 -75 8 7 23 87 17 87 -2 0 -5 -6 -7
-12z"/>
<path d="M10341 6929 c-1 -9 7 -23 17 -30 15 -12 16 -12 6 1 -6 8 -14 22 -17
30 -5 13 -6 12 -6 -1z"/>
<path d="M10546 6848 c-37 -39 -33 -44 7 -9 16 14 43 53 35 50 -2 0 -21 -19
-42 -41z"/>
<path d="M10368 6868 c11 -14 10 -17 -5 -21 -14 -4 -13 -5 5 -6 26 -1 29 11 5
30 -16 13 -17 12 -5 -3z"/>
<path d="M10673 6791 c-12 -21 -43 -53 -69 -70 -26 -17 -43 -31 -37 -31 32 0
148 119 131 135 -2 2 -13 -13 -25 -34z"/>
<path d="M10347 6809 c16 -16 116 -24 138 -11 13 7 3 8 -33 4 -28 -2 -65 1
-84 7 -25 9 -30 9 -21 0z"/>
<path d="M11911 7279 c-25 -27 -27 -39 -96 -464 -31 -187 -78 -479 -106 -650
-28 -170 -58 -355 -67 -410 l-17 -100 -453 -5 c-434 -5 -454 -6 -468 -24 -20
-28 -18 -80 4 -99 17 -16 139 -17 1543 -17 1361 0 1527 2 1547 16 42 29 29
-37 202 1000 60 364 110 675 110 692 0 17 -5 43 -12 57 l-11 25 -1078 0 -1078
0 -20 -21z m2119 -55 c0 -4 -18 -111 -40 -238 -151 -881 -220 -1288 -220
-1296 0 -7 -358 -10 -1030 -10 -700 0 -1030 3 -1030 10 0 6 25 162 55 348 138
839 195 1173 200 1182 7 11 2065 14 2065 4z"/>
<path d="M803 5630 c-12 -5 -26 -18 -32 -29 -8 -14 -11 -609 -11 -1970 l0
-1951 45 0 45 0 0 -430 0 -430 85 0 85 0 0 430 0 430 600 0 600 0 0 -430 0
-430 85 0 85 0 0 430 0 430 -75 0 -75 0 0 1978 0 1977 -708 2 c-389 1 -717 -2
-729 -7z"/>
<path d="M5492 3200 c0 -14 2 -19 5 -12 2 6 2 18 0 25 -3 6 -5 1 -5 -13z"/>
<path d="M5502 3135 c0 -16 2 -22 5 -12 2 9 2 23 0 30 -3 6 -5 -1 -5 -18z"/>
<path d="M5511 3074 c0 -11 3 -14 6 -6 3 7 2 16 -1 19 -3 4 -6 -2 -5 -13z"/>
<path d="M5522 3010 c0 -14 2 -19 5 -12 2 6 2 18 0 25 -3 6 -5 1 -5 -13z"/>
<path d="M5532 2955 c0 -16 2 -22 5 -12 2 9 2 23 0 30 -3 6 -5 -1 -5 -18z"/>
<path d="M5541 2894 c0 -11 3 -14 6 -6 3 7 2 16 -1 19 -3 4 -6 -2 -5 -13z"/>
<path d="M5552 2830 c0 -14 2 -19 5 -12 2 6 2 18 0 25 -3 6 -5 1 -5 -13z"/>
<path d="M5562 2770 c0 -14 2 -19 5 -12 2 6 2 18 0 25 -3 6 -5 1 -5 -13z"/>
<path d="M5571 2704 c0 -11 3 -14 6 -6 3 7 2 16 -1 19 -3 4 -6 -2 -5 -13z"/>
<path d="M5581 2644 c0 -11 3 -14 6 -6 3 7 2 16 -1 19 -3 4 -6 -2 -5 -13z"/>
<path d="M5592 2580 c0 -14 2 -19 5 -12 2 6 2 18 0 25 -3 6 -5 1 -5 -13z"/>
<path d="M5602 2520 c0 -14 2 -19 5 -12 2 6 2 18 0 25 -3 6 -5 1 -5 -13z"/>
<path d="M5612 2455 c0 -16 2 -22 5 -12 2 9 2 23 0 30 -3 6 -5 -1 -5 -18z"/>
<path d="M5621 2394 c0 -11 3 -14 6 -6 3 7 2 16 -1 19 -3 4 -6 -2 -5 -13z"/>
<path d="M10091 2361 c-13 -8 -5 -66 52 -378 36 -202 71 -398 78 -435 6 -38
14 -66 19 -63 4 2 5 -6 3 -18 -4 -19 87 -547 103 -599 3 -10 17 -27 31 -38 25
-19 39 -20 514 -20 326 0 496 4 512 11 12 6 29 19 35 30 7 11 62 316 122 677
136 819 134 808 127 826 -6 14 -91 16 -794 16 -455 0 -794 -4 -802 -9z m545
-26 c18 -4 21 -13 23 -72 1 -38 6 -129 10 -203 4 -74 6 -138 4 -142 -4 -7
-233 -12 -233 -5 0 1 -13 99 -28 217 l-28 215 116 -3 c63 -1 124 -4 136 -7z
m1043 -18 c-1 -21 -1 -21 -8 2 -10 35 -74 -375 -65 -419 5 -29 4 -33 -7 -22
-7 7 -44 13 -89 14 l-75 2 80 6 80 7 -86 -1 -86 -1 8 35 c4 19 15 107 24 195
23 228 9 204 118 207 50 2 95 2 100 0 4 -2 7 -13 6 -25z m-1319 16 c0 -4 11
-93 25 -197 14 -104 25 -197 25 -208 0 -16 -10 -18 -113 -18 l-112 0 -34 188
c-19 103 -36 199 -38 213 l-5 26 126 2 c69 1 126 -1 126 -6z m577 -145 c-4
-83 -7 -180 -7 -215 l0 -63 -114 0 -113 0 -7 113 c-3 61 -9 158 -12 215 l-7
102 133 0 133 0 -6 -152z m257 143 c2 -3 0 -62 -5 -131 -5 -69 -12 -162 -15
-208 l-6 -83 -106 3 -106 3 3 205 c1 113 5 208 8 213 5 9 221 8 227 -2z m253
-38 c-3 -27 -13 -123 -23 -215 l-17 -168 -109 0 c-107 0 -108 0 -104 23 3 12
10 109 17 215 l12 192 115 0 115 0 -6 -47z m-1340 -35 c-3 -8 -6 -5 -6 6 -1
11 2 17 5 13 3 -3 4 -12 1 -19z m1560 -10 c-3 -8 -6 -5 -6 6 -1 11 2 17 5 13
3 -3 4 -12 1 -19z m-10 -60 c-3 -8 -6 -5 -6 6 -1 11 2 17 5 13 3 -3 4 -12 1
-19z m-10 -70 c-3 -8 -6 -5 -6 6 -1 11 2 17 5 13 3 -3 4 -12 1 -19z m-30 -190
c-3 -8 -6 -5 -6 6 -1 11 2 17 5 13 3 -3 4 -12 1 -19z m-927 -28 c0 -3 55 -4
122 -3 68 1 119 0 113 -2 -22 -10 -502 -10 -502 0 0 6 51 10 134 10 73 0 133
-2 133 -5z m494 0 c124 0 227 -4 230 -8 2 -4 -46 -7 -107 -6 l-112 0 103 -3
c69 -3 102 -7 102 -15 0 -19 -41 -361 -46 -385 -4 -22 -9 -23 -99 -23 -67 0
-95 4 -95 12 0 7 7 97 16 201 8 104 13 195 10 203 -4 11 -29 14 -123 12 l-118
-2 113 -3 113 -4 -5 -27 c-11 -61 -28 -372 -21 -389 5 -10 7 -21 7 -25 -1 -5
43 -8 98 -8 l100 0 -5 -27 c-14 -80 -54 -406 -51 -411 2 -4 -38 -6 -90 -4 -75
3 -93 1 -89 -10 7 -17 198 -22 227 -7 16 8 19 8 13 -1 -6 -9 4 -10 40 -6 31 5
45 3 40 -4 -3 -5 -1 -10 5 -10 6 0 8 -11 5 -25 -3 -14 -7 -36 -10 -50 -3 -14
-12 -25 -19 -25 -8 0 -17 -6 -20 -12 -4 -7 -4 -3 -2 9 5 25 -8 38 -25 27 -8
-5 -7 -9 1 -14 7 -4 10 -15 7 -24 -8 -19 -63 -22 -70 -3 -4 9 -7 9 -18 0 -10
-10 -73 -13 -253 -11 -134 0 -221 4 -196 8 l45 7 -37 1 c-21 1 -38 7 -38 13 0
5 -5 7 -11 3 -6 -3 -44 -6 -85 -6 -41 1 -74 -2 -74 -7 0 -4 27 -7 60 -6 34 0
66 -3 73 -7 7 -4 -31 -7 -83 -7 -52 0 -88 3 -80 7 14 6 14 9 -2 25 -14 13 -18
14 -18 3 0 -7 -7 -19 -15 -26 -10 -9 -15 -9 -15 -1 0 6 -5 11 -11 11 -5 0 -7
-5 -4 -10 15 -23 -110 0 -127 24 -4 6 -13 4 -23 -4 -9 -7 -15 -9 -14 -4 1 5 1
16 0 24 -1 13 -2 13 -11 0 -8 -12 -10 -8 -11 15 -1 17 -1 39 0 50 2 16 0 17
-8 5 -8 -12 -10 -11 -9 6 2 20 6 21 182 18 131 -2 183 0 188 9 6 9 8 9 8 0 0
-9 28 -12 100 -11 55 0 98 4 95 8 -2 3 2 7 10 7 8 0 12 -4 9 -9 -3 -4 28 -8
69 -8 111 0 112 0 132 237 10 106 14 208 11 228 l-7 35 -97 0 -97 0 0 224 c0
123 3 222 7 220 4 -3 108 -4 232 -4z m-826 -7 c-32 -2 -84 -2 -115 0 -32 2 -6
3 57 3 63 0 89 -1 58 -3z m76 -190 c9 -98 20 -193 23 -210 l5 -33 -99 0 -99 0
-33 198 c-19 108 -36 203 -39 210 -3 9 23 12 110 12 l114 0 18 -177z m249 40
c4 -75 7 -169 7 -210 l0 -73 -105 0 c-102 0 -105 1 -105 23 0 12 -9 105 -20
207 -11 102 -20 186 -20 188 0 1 53 2 118 2 l119 0 6 -137z m244 -5 c-4 -79
-7 -173 -7 -210 l0 -68 -99 0 -99 0 -6 63 c-3 34 -7 128 -10 210 l-5 147 116
0 116 0 -6 -142z m658 110 c-3 -18 -18 -112 -33 -208 l-28 -175 -72 -3 c-85
-3 -80 -26 -52 205 29 238 16 213 111 213 l80 0 -6 -32z m-18 -220 c-3 -8 -6
-5 -6 6 -1 11 2 17 5 13 3 -3 4 -12 1 -19z m-20 -120 c-3 -8 -6 -5 -6 6 -1 11
2 17 5 13 3 -3 4 -12 1 -19z m-163 -69 c-11 -5 13 -8 59 -8 59 -1 77 -4 74
-13 -2 -7 -20 -106 -38 -220 l-34 -208 -68 0 c-65 0 -67 1 -62 23 14 64 56
401 51 414 -8 21 2 33 21 26 15 -6 14 -7 -3 -14z m-1087 5 c-3 -3 -12 -4 -19
-1 -8 3 -5 6 6 6 11 1 17 -2 13 -5z m76 -1 c-13 -2 -33 -2 -45 0 -13 2 -3 4
22 4 25 0 35 -2 23 -4z m70 0 c-7 -2 -21 -2 -30 0 -10 3 -4 5 12 5 17 0 24 -2
18 -5z m74 1 c-3 -3 -12 -4 -19 -1 -8 3 -5 6 6 6 11 1 17 -2 13 -5z m251 -1
c-42 -2 -114 -2 -160 0 -46 1 -11 3 77 3 88 0 125 -2 83 -3z m189 1 c-3 -3
-12 -4 -19 -1 -8 3 -5 6 6 6 11 1 17 -2 13 -5z m40 0 c-3 -3 -12 -4 -19 -1 -8
3 -5 6 6 6 11 1 17 -2 13 -5z m111 -1 c-10 -2 -28 -2 -40 0 -13 2 -5 4 17 4
22 1 32 -1 23 -4z m165 0 c-13 -2 -35 -2 -50 0 -16 2 -5 4 22 4 28 0 40 -2 28
-4z m60 0 c-7 -2 -19 -2 -25 0 -7 3 -2 5 12 5 14 0 19 -2 13 -5z m150 0 c-7
-2 -19 -2 -25 0 -7 3 -2 5 12 5 14 0 19 -2 13 -5z m-999 -205 c10 -106 20
-205 23 -220 l6 -28 -82 0 c-76 0 -81 1 -85 23 -9 41 -35 181 -53 287 -12 76
-19 98 -24 80 -4 -14 -7 -18 -8 -10 0 8 2 25 5 38 6 21 11 22 103 22 l97 0 18
-192z m210 180 c3 -7 7 -106 10 -220 l6 -208 -90 0 c-65 0 -90 3 -90 13 0 17
-28 311 -36 375 l-6 52 101 0 c73 0 103 -4 105 -12z m223 -115 c-4 -71 -7
-170 -7 -220 l0 -93 -90 0 -90 0 0 93 c0 50 -3 149 -7 220 l-6 127 103 0 103
0 -6 -127z m213 110 c0 -14 -37 -409 -40 -420 0 -2 -37 -3 -82 -3 l-81 0 6
128 c4 70 7 169 7 220 l0 92 95 0 c84 0 95 -2 95 -17z"/>
<path d="M10376 947 c3 -10 9 -15 12 -12 3 3 0 11 -7 18 -10 9 -11 8 -5 -6z"/>
<path d="M10386 885 c4 -8 10 -15 15 -15 4 0 6 7 3 15 -4 8 -10 15 -15 15 -4
0 -6 -7 -3 -15z"/>
<path d="M10530 869 c0 -5 5 -7 10 -4 6 3 10 8 10 11 0 2 -4 4 -10 4 -5 0 -10
-5 -10 -11z"/>
<path d="M10630 870 c0 -5 5 -10 11 -10 5 0 7 5 4 10 -3 6 -8 10 -11 10 -2 0
-4 -4 -4 -10z"/>
<path d="M10715 870 c-3 -6 1 -7 9 -4 18 7 21 14 7 14 -6 0 -13 -4 -16 -10z"/>
<path d="M10970 865 c0 -8 5 -15 10 -15 6 0 10 7 10 15 0 8 -4 15 -10 15 -5 0
-10 -7 -10 -15z"/>
<path d="M11010 870 c0 -5 5 -10 10 -10 6 0 10 5 10 10 0 6 -4 10 -10 10 -5 0
-10 -4 -10 -10z"/>
<path d="M10430 860 c0 -5 5 -10 10 -10 6 0 10 5 10 10 0 6 -4 10 -10 10 -5 0
-10 -4 -10 -10z"/>
<path d="M10500 845 c-8 -9 -8 -15 -2 -15 12 0 26 19 19 26 -2 2 -10 -2 -17
-11z"/>
<path d="M11255 850 c-19 -8 -19 -9 3 -9 12 -1 22 4 22 9 0 6 -1 10 -2 9 -2 0
-12 -4 -23 -9z"/>
<path d="M10935 840 c40 -9 122 -13 114 -6 -2 2 -38 6 -79 9 -56 4 -65 3 -35
-3z"/>
<path d="M11170 840 l-35 -7 37 -2 c20 0 40 4 43 9 7 11 7 11 -45 0z"/>
<path d="M11330 841 c0 -6 9 -9 19 -8 11 0 17 5 15 9 -7 11 -34 10 -34 -1z"/>
<path d="M5632 2330 c0 -14 2 -19 5 -12 2 6 2 18 0 25 -3 6 -5 1 -5 -13z"/>
<path d="M4667 2301 c-4 -17 -3 -21 5 -13 5 5 8 16 6 23 -3 8 -7 3 -11 -10z"/>
<path d="M5642 2270 c0 -14 2 -19 5 -12 2 6 2 18 0 25 -3 6 -5 1 -5 -13z"/>
<path d="M4751 2233 c0 -12 2 -14 6 -4 5 11 7 11 15 0 8 -12 9 -12 6 0 -6 22
-28 25 -27 4z"/>
<path d="M5651 2204 c0 -11 3 -14 6 -6 3 7 2 16 -1 19 -3 4 -6 -2 -5 -13z"/>
<path d="M5662 2140 c0 -14 2 -19 5 -12 2 6 2 18 0 25 -3 6 -5 1 -5 -13z"/>
<path d="M5671 2084 c0 -11 3 -14 6 -6 3 7 2 16 -1 19 -3 4 -6 -2 -5 -13z"/>
<path d="M5682 2020 c0 -14 2 -19 5 -12 2 6 2 18 0 25 -3 6 -5 1 -5 -13z"/>
<path d="M5691 1954 c0 -11 3 -14 6 -6 3 7 2 16 -1 19 -3 4 -6 -2 -5 -13z"/>
<path d="M5701 1884 c0 -11 3 -14 6 -6 3 7 2 16 -1 19 -3 4 -6 -2 -5 -13z"/>
<path d="M6962 1880 c0 -14 4 -36 8 -50 l8 -25 0 25 c0 14 -4 36 -8 50 l-8 25
0 -25z"/>
<path d="M5712 1840 c0 -14 2 -19 5 -12 2 6 2 18 0 25 -3 6 -5 1 -5 -13z"/>
<path d="M7135 1801 c-3 -5 -1 -12 5 -16 5 -3 10 1 10 9 0 18 -6 21 -15 7z"/>
<path d="M6980 1790 c0 -5 5 -10 11 -10 5 0 7 5 4 10 -3 6 -8 10 -11 10 -2 0
-4 -4 -4 -10z"/>
<path d="M5721 1774 c0 -11 3 -14 6 -6 3 7 2 16 -1 19 -3 4 -6 -2 -5 -13z"/>
<path d="M7131 1761 c-12 -8 -13 -14 -3 -36 7 -15 17 -23 24 -19 8 5 9 -1 4
-20 -3 -14 -2 -35 4 -46 7 -12 7 -21 0 -25 -5 -3 -10 1 -10 9 0 9 -5 16 -10
16 -6 0 -8 12 -4 28 4 21 3 24 -5 12 -12 -17 -15 -74 -3 -66 12 7 37 -17 51
-52 18 -44 6 -53 -14 -11 l-15 34 4 -30 c2 -16 0 -37 -4 -45 -5 -9 -3 -25 5
-40 14 -27 13 -28 31 27 4 15 7 15 15 3 8 -12 9 -9 5 10 -2 14 -15 78 -27 143
-12 64 -25 117 -28 117 -3 0 -12 -4 -20 -9z m19 -28 c-1 -24 -2 -26 -11 -10
-5 9 -7 22 -4 27 10 17 15 11 15 -17z"/>
<path d="M5732 1710 c0 -14 2 -19 5 -12 2 6 2 18 0 25 -3 6 -5 1 -5 -13z"/>
<path d="M7010 1698 c-12 -22 -12 -22 6 -6 10 10 15 20 12 24 -4 3 -12 -5 -18
-18z"/>
<path d="M3790 1250 l0 -430 85 0 85 0 0 430 0 430 -85 0 -85 0 0 -430z"/>
<path d="M5741 1644 c0 -11 3 -14 6 -6 3 7 2 16 -1 19 -3 4 -6 -2 -5 -13z"/>
<path d="M7011 1634 c0 -11 3 -14 6 -6 3 7 2 16 -1 19 -3 4 -6 -2 -5 -13z"/>
<path d="M7023 1589 c-2 -23 3 -25 10 -4 4 8 3 16 -1 19 -4 3 -9 -4 -9 -15z"/>
<path d="M5752 1580 c0 -14 2 -19 5 -12 2 6 2 18 0 25 -3 6 -5 1 -5 -13z"/>
<path d="M7032 1550 c-1 -8 9 -62 22 -120 18 -84 24 -99 28 -75 4 16 2 33 -4
36 -6 4 -8 25 -4 50 4 32 3 37 -3 19 l-9 -25 -2 25 c-2 30 -28 111 -28 90z"/>
<path d="M5761 1524 c0 -11 3 -14 6 -6 3 7 2 16 -1 19 -3 4 -6 -2 -5 -13z"/>
<path d="M5771 1464 c0 -11 3 -14 6 -6 3 7 2 16 -1 19 -3 4 -6 -2 -5 -13z"/>
<path d="M7207 1473 c-11 -10 -8 -43 3 -43 6 0 10 11 10 25 0 26 -2 29 -13 18z"/>
<path d="M5781 1404 c0 -11 3 -14 6 -6 3 7 2 16 -1 19 -3 4 -6 -2 -5 -13z"/>
<path d="M7100 1399 c0 -5 5 -7 10 -4 6 3 10 8 10 11 0 2 -4 4 -10 4 -5 0 -10
-5 -10 -11z"/>
<path d="M4471 1203 c-14 -87 -26 -171 -27 -188 -3 -27 -2 -26 6 5 14 53 53
317 48 330 -2 6 -14 -60 -27 -147z"/>
<path d="M5792 1335 c0 -16 2 -22 5 -12 2 9 2 23 0 30 -3 6 -5 -1 -5 -18z"/>
<path d="M7081 1304 c0 -11 3 -14 6 -6 3 7 2 16 -1 19 -3 4 -6 -2 -5 -13z"/>
<path d="M5811 1204 c0 -11 3 -14 6 -6 3 7 2 16 -1 19 -3 4 -6 -2 -5 -13z"/>
<path d="M4611 1050 c-45 -305 -47 -309 -119 -308 -68 1 -76 18 -62 133 7 52
10 98 8 101 -3 2 -11 -43 -18 -101 -11 -96 -11 -108 5 -125 37 -40 135 -29
149 17 16 59 69 408 64 425 -2 6 -14 -58 -27 -142z"/>
<path d="M5822 1140 c0 -14 2 -19 5 -12 2 6 2 18 0 25 -3 6 -5 1 -5 -13z"/>
<path d="M5831 1074 c0 -11 3 -14 6 -6 3 7 2 16 -1 19 -3 4 -6 -2 -5 -13z"/>
<path d="M5841 1014 c0 -11 3 -14 6 -6 3 7 2 16 -1 19 -3 4 -6 -2 -5 -13z"/>
<path d="M5852 960 c0 -14 2 -19 5 -12 2 6 2 18 0 25 -3 6 -5 1 -5 -13z"/>
<path d="M5862 900 c0 -14 2 -19 5 -12 2 6 2 18 0 25 -3 6 -5 1 -5 -13z"/>
<path d="M6042 860 c0 -14 2 -19 5 -12 2 6 2 18 0 25 -3 6 -5 1 -5 -13z"/>
<path d="M5871 834 c0 -11 3 -14 6 -6 3 7 2 16 -1 19 -3 4 -6 -2 -5 -13z"/>
<path d="M5882 780 c0 -14 2 -19 5 -12 2 6 2 18 0 25 -3 6 -5 1 -5 -13z"/>
<path d="M6051 784 c0 -11 3 -14 6 -6 3 7 2 16 -1 19 -3 4 -6 -2 -5 -13z"/>
<path d="M6029 743 c-13 -16 -12 -17 4 -4 9 7 17 15 17 17 0 8 -8 3 -21 -13z"/>
<path d="M5890 746 c0 -2 8 -10 18 -17 15 -13 16 -12 3 4 -13 16 -21 21 -21
13z"/>
<path d="M5943 713 c9 -2 25 -2 35 0 9 3 1 5 -18 5 -19 0 -27 -2 -17 -5z"/>
</g>
</svg>
